<svg width="35" height="42" viewBox="0 0 35 42" fill="none" xmlns="http://www.w3.org/2000/svg">
<path d="M17.5 41.8333C11.7979 37.0764 7.53942 32.6583 4.7245 28.5792C1.90958 24.5 0.501417 20.7236 0.5 17.25C0.5 12.0417 2.20921 7.89235 5.62763 4.80207C9.04604 1.7118 13.0035 0.166656 17.5 0.166656C21.9979 0.166656 25.9561 1.7118 29.3745 4.80207C32.7929 7.89235 34.5014 12.0417 34.5 17.25C34.5 20.7222 33.0918 24.4986 30.2755 28.5792C27.4592 32.6597 23.2007 37.0778 17.5 41.8333ZM11.125 23.0833H15.375V17.3542H19.625V23.0833H23.875V13.1875L17.5 9.02082L11.125 13.1875V23.0833Z" fill="#F24E1E"/>
</svg>
